<svg width="134" height="35" viewBox="0 0 134 35" fill="none" xmlns="http://www.w3.org/2000/svg">
<path d="M8.44297 15.6199C5.90321 15.6199 4.63334 16.0317 4.63334 16.8898C4.63334 17.7135 5.90321 18.1253 8.44297 18.1253C10.5365 18.1253 12.3556 18.5029 13.8657 19.2922C15.822 20.3219 16.8173 21.6604 16.8173 23.3421C16.8173 25.0238 15.822 26.328 13.8657 27.3577C12.3212 28.1471 10.5022 28.5246 8.44297 28.5246C7.00148 28.5246 5.59432 28.2843 4.2558 27.8725C2.91729 27.4263 1.71605 26.7056 0.652099 25.7446C0.240247 25.3671 0.034321 24.9209 0 24.4061C0 23.8569 0.205926 23.3764 0.583457 22.9989C0.960988 22.5871 1.44148 22.3811 2.02494 22.3468C2.6084 22.3468 3.12321 22.4841 3.53506 22.8616C4.18716 23.4794 4.94222 23.8913 5.80025 24.1658C6.62395 24.4404 7.55062 24.5777 8.44297 24.5777C10.9484 24.5777 12.184 24.1658 12.184 23.3421C12.184 22.5184 10.9484 22.0722 8.44297 22.0722C6.31506 22.0722 4.53037 21.6604 2.98593 20.9053C0.995309 19.8757 0 18.5715 0 16.8898C0 15.208 0.995309 13.8695 2.95161 12.8399C4.49605 12.0848 6.28074 11.673 8.40865 11.673C11.5319 11.673 14.1059 12.5996 16.1309 14.453C16.577 14.7962 16.8173 15.2424 16.8173 15.7915C16.8516 16.3406 16.68 16.8211 16.2338 17.233C15.8563 17.6448 15.3758 17.8508 14.7924 17.8508C14.2432 17.8851 13.7284 17.6791 13.3165 17.3016C12.6301 16.7182 11.8751 16.272 11.017 15.9974C10.159 15.7915 9.30099 15.6199 8.44297 15.6199ZM22.6175 7.52013V12.8399C23.8874 12.0505 25.2946 11.673 26.839 11.673C29.1385 11.673 31.1291 12.4967 32.8109 14.1784C34.4583 15.7915 35.282 17.7821 35.282 20.1503V26.431C35.282 27.0145 35.0761 27.5293 34.6642 27.9411C34.218 28.353 33.7375 28.5589 33.1198 28.5589C32.5363 28.5589 32.0558 28.3187 31.644 27.9411C31.2321 27.5293 31.0262 27.0145 31.0262 26.431V20.1503C31.0262 18.9833 30.6143 17.988 29.7906 17.1643C28.9669 16.3063 27.9716 15.8945 26.839 15.8945C25.6378 15.8945 24.6768 16.3063 23.8188 17.1643C23.0294 17.988 22.6175 18.9833 22.6175 20.1503V26.431C22.6175 27.0145 22.3773 27.5293 21.9998 27.9411C21.5879 28.353 21.1074 28.5589 20.4896 28.5589C19.9062 28.5589 19.4257 28.3187 19.0138 27.9411C18.602 27.5293 18.3961 27.0145 18.3961 26.431C18.3961 23.2735 18.3961 20.1503 18.3961 16.9584C18.3961 13.8009 18.3961 10.6777 18.3961 7.52013C18.3961 6.90236 18.5677 6.42186 19.0138 6.01001C19.4257 5.59816 19.9062 5.39223 20.4896 5.39223C21.1074 5.39223 21.5879 5.59816 21.9998 6.01001C22.3773 6.42186 22.6175 6.90236 22.6175 7.52013ZM45.2351 11.6387C47.5346 11.6387 49.5595 12.4624 51.2069 14.1098C52.8887 15.7915 53.678 17.7478 53.678 20.0473C53.678 22.4154 52.8887 24.3717 51.2069 26.0192C49.5595 27.7009 47.5689 28.5246 45.2351 28.5246C42.9356 28.5246 40.9106 27.7009 39.2632 26.0192C37.6158 24.3717 36.7921 22.4154 36.7921 20.0473C36.7921 17.7478 37.6158 15.7572 39.2632 14.1098C40.9106 12.4967 42.9013 11.6387 45.2351 11.6387ZM45.2351 15.8601C44.1025 15.8601 43.0729 16.272 42.2835 17.13C41.4598 17.9537 41.0479 18.949 41.0479 20.0816C41.0479 21.2485 41.4598 22.2438 42.2835 23.0675C43.0729 23.8569 44.1025 24.2688 45.2351 24.2688C46.402 24.2688 47.3973 23.8569 48.1867 23.0675C49.0104 22.2438 49.4222 21.2485 49.4222 20.0816C49.4222 18.949 49.0104 17.9537 48.1867 17.13C47.3973 16.272 46.402 15.8601 45.2351 15.8601ZM94.1425 28.5246C93.559 28.5246 93.0786 28.353 92.6667 27.9068C92.2549 27.495 92.0489 26.9801 92.0489 26.3967V13.8009C92.0489 13.2174 92.2549 12.7369 92.6667 12.3251C93.0786 11.9132 93.5934 11.673 94.1425 11.673C94.7603 11.673 95.2408 11.9132 95.6526 12.3251C96.0302 12.7369 96.2704 13.2174 96.2704 13.8009V26.3967C96.2704 27.0145 96.0302 27.495 95.6526 27.9068C95.2408 28.353 94.7603 28.5246 94.1425 28.5246ZM94.1425 5.35791C94.7603 5.35791 95.2408 5.59816 95.6526 6.01001C96.0302 6.42186 96.2704 6.93668 96.2704 7.48581C96.2704 8.10359 96.0302 8.58408 95.6526 8.96162C95.2408 9.37347 94.726 9.61371 94.1425 9.61371C93.559 9.61371 93.0786 9.37347 92.6667 8.96162C92.2549 8.58408 92.0489 8.10359 92.0489 7.48581C92.0489 6.93668 92.2549 6.42186 92.6667 6.01001C93.0786 5.59816 93.5934 5.35791 94.1425 5.35791ZM106.258 11.673C108.557 11.673 110.548 12.4967 112.23 14.1441C113.877 15.7915 114.701 17.7821 114.701 20.1159V26.3967C114.701 27.0145 114.461 27.495 114.083 27.9068C113.671 28.3187 113.122 28.5246 112.573 28.5246C111.989 28.5246 111.509 28.353 111.097 27.9068C110.685 27.495 110.479 26.9801 110.479 26.3967V20.1159C110.479 18.9833 110.067 17.988 109.209 17.1643C108.386 16.3406 107.39 15.9288 106.258 15.9288C105.091 15.9288 104.096 16.3406 103.272 17.1643C102.448 17.988 102.071 18.9833 102.071 20.1159V26.3967C102.071 27.0145 101.83 27.495 101.419 27.9068C101.041 28.3187 100.526 28.5246 99.9428 28.5246C99.3593 28.5246 98.8445 28.353 98.4669 27.9068C98.0551 27.495 97.8492 26.9801 97.8492 26.3967V20.1159C97.8492 17.8164 98.6386 15.7915 100.32 14.1441C101.933 12.531 103.89 11.673 106.258 11.673ZM124.654 11.6043C126.953 11.6043 128.944 12.428 130.626 14.0754C132.273 15.7572 133.097 17.7135 133.097 20.0473V26.328C133.097 28.6962 132.273 30.6525 130.626 32.3342C128.944 33.9816 126.988 34.771 124.654 34.771C123.315 34.771 122.08 34.4964 120.947 33.9473C119.815 33.3295 118.819 32.5745 118.064 31.6478C118.099 31.6135 118.064 31.5792 118.03 31.4762C117.618 31.0987 117.378 30.6182 117.378 30.0004C117.378 29.4169 117.618 28.9364 118.03 28.5246C118.442 28.1127 118.957 27.8725 119.506 27.8725C120.124 27.8725 120.604 28.1127 121.016 28.5246C121.153 28.6619 121.325 28.8678 121.428 29.108C122.286 30.1034 123.35 30.6182 124.654 30.6182C125.786 30.6182 126.816 30.2063 127.605 29.3483C128.429 28.5589 128.841 27.5293 128.841 26.3624V20.0473C128.841 18.9147 128.429 17.9194 127.605 17.0957C126.816 16.272 125.786 15.8258 124.654 15.8258C123.521 15.8258 122.492 16.2377 121.668 17.0957C120.879 17.9194 120.467 18.9147 120.467 20.0473C120.467 21.2142 120.879 22.2095 121.668 23.0332C122.492 23.8226 123.521 24.2345 124.654 24.2345C125.237 24.2345 125.718 24.4061 126.13 24.8522C126.542 25.2641 126.782 25.7789 126.782 26.328C126.782 26.9458 126.542 27.4263 126.13 27.8382C125.718 28.25 125.203 28.4559 124.654 28.4559C122.354 28.4559 120.329 27.6666 118.682 25.9848C117.035 24.3717 116.211 22.3468 116.211 20.013C116.211 17.7135 117.035 15.7229 118.682 14.0411C120.329 12.4624 122.354 11.6043 124.654 11.6043Z" fill="#FF6600"/>
<path fill-rule="evenodd" clip-rule="evenodd" d="M47.1569 0.0381883C43.3472 0.79325 45.8183 3.88214 47.2255 3.64189C63.6309 0.724608 47.6373 19.5325 57.6934 24.1315C57.8307 24.1659 58.0366 24.2345 58.1739 24.2688C57.7964 24.7493 57.5218 25.2641 57.2472 25.8476C56.5608 27.4263 56.5608 29.0738 57.2472 30.7212C57.9336 32.3686 59.0662 33.5012 60.7137 34.1876C62.3267 34.8397 63.9741 34.8397 65.5529 34.1876C67.2003 33.5012 68.3329 32.3343 69.0193 30.7212C69.6028 29.3483 69.6714 27.9755 69.2939 26.637C71.0786 26.8429 72.8633 26.9115 74.648 26.9115C74.3391 28.0098 74.3391 29.1424 74.648 30.3093C75.0942 31.991 76.0895 33.2609 77.6339 34.1533C79.144 35.0113 80.7571 35.2172 82.4388 34.771C84.1549 34.3249 85.3904 33.3296 86.2828 31.8194C87.1408 30.3093 87.3811 28.6619 86.9349 26.9459C86.6946 26.1565 86.3514 25.4357 85.8709 24.818C90.8475 22.4155 93.0784 17.7135 88.7882 9.3735C84.704 1.44535 57.2129 16.272 64.489 14.7276C73.9616 12.7026 78.5263 12.4967 80.9974 12.634C90.5729 13.0802 86.0769 18.1254 83.1939 20.2189C80.3109 22.3125 74.8539 24.5777 66.2393 23.754C66.0677 23.7197 61.9149 23.1705 61.1255 18.9147C58.9976 7.14264 62.4983 -0.613911 47.1569 0.0381883ZM62.3954 25.1268C64.1801 24.6463 66.0334 25.7103 66.5139 27.495C66.9944 29.2797 65.9304 31.133 64.1458 31.6478C62.3611 32.1283 60.542 31.0644 60.0616 29.2797C59.5467 27.4607 60.6107 25.6417 62.3954 25.1268ZM79.9677 25.2984C81.7867 24.818 83.6401 25.8819 84.1549 27.7009C84.6697 29.4856 83.6058 31.3733 81.7867 31.8538C79.9677 32.3343 78.1144 31.3046 77.5996 29.4513C77.1191 27.7009 78.183 25.8476 79.9677 25.2984Z" fill="white"/>
<path fill-rule="evenodd" clip-rule="evenodd" d="M62.5673 26.0879C63.8715 25.7447 65.1413 26.4998 65.4845 27.7697C65.8621 29.0396 65.107 30.3437 63.8371 30.687C62.5673 31.0302 61.2631 30.3094 60.9199 29.0052C60.611 27.7697 61.3317 26.4998 62.5673 26.0879Z" fill="white"/>
<path fill-rule="evenodd" clip-rule="evenodd" d="M72.1429 21.0084C79.7964 19.155 87.9648 14.6247 83.8463 15.3797C75.1631 16.9928 71.0446 17.1644 68.8137 16.9928C60.3364 16.478 61.3317 23.6854 72.1429 21.0084Z" fill="white"/>
<path fill-rule="evenodd" clip-rule="evenodd" d="M80.2082 26.2937C81.4437 25.9505 82.7822 26.6712 83.1254 27.9754C83.4687 29.2453 82.7479 30.5151 81.4437 30.8584C80.2082 31.2359 78.9383 30.4808 78.5607 29.211C78.2175 27.9754 78.9726 26.6369 80.2082 26.2937Z" fill="white"/>
</svg>
